HIERARCHY
ROOT pelvis
{
  OFFSET 0 100 0
  CHANNELS 6 Xposition Yposition Zposition Zrotation Xrotation Yrotation
  JOINT pelvis_right_femur
  {
    OFFSET -10.78128 -3.44521 -0.5502486
    CHANNELS 3 Zrotation Xrotation Yrotation
    JOINT right_femur_tibia
    {
      OFFSET -0.8047443 -44.0398 -0.1307829
      CHANNELS 3 Zrotation Xrotation Yrotation
      JOINT right_tibia_foot
      {
        OFFSET 3.006224 -47.83518 -5
        CHANNELS 3 Zrotation Xrotation Yrotation
        End Site
        {
          OFFSET 0 -5 15
        }
      }
    }
  }
  JOINT pelvis_left_femur
  {
    OFFSET 10.78128 -3.44521 -0.5502486
    CHANNELS 3 Zrotation Xrotation Yrotation
    JOINT left_femur_tibia
    {
      OFFSET 0.8047443 -44.0398 -0.1307829
      CHANNELS 3 Zrotation Xrotation Yrotation
      JOINT left_tibia_foot
      {
        OFFSET -4.370144 -48.10324 -4.275266
        CHANNELS 3 Zrotation Xrotation Yrotation
        End Site
        {
          OFFSET 0 -5 15
        }
      }
    }
  }
  JOINT pelvis_spine1
  {
    OFFSET 0 6.468898 -3.129235
    CHANNELS 3 Zrotation Xrotation Yrotation
    JOINT spine1
    {
      OFFSET 0 23.15396 4.99043
      CHANNELS 3 Zrotation Xrotation Yrotation
      JOINT spine2
      {
        OFFSET 0 20.79997 -5.064912
        CHANNELS 3 Zrotation Xrotation Yrotation
        JOINT neck
        {
          OFFSET 0 14.38658 9.616178
          CHANNELS 3 Zrotation Xrotation Yrotation
          End Site
          {
            OFFSET 0 20 0
          }
        }
      }
      JOINT right_manubrium
      {
        OFFSET -5.722621 16.35077 3.967754
        CHANNELS 3 Zrotation Xrotation Yrotation
        JOINT right_clavicle
        {
          OFFSET -13.16364 1.694482 -4.693211
          CHANNELS 3 Zrotation Xrotation Yrotation
          JOINT right_humerus
          {
            OFFSET -28.5034 -0.3100689 -2.792744
            CHANNELS 3 Zrotation Xrotation Yrotation
            JOINT right_radius
            {
              OFFSET -25.15693 0.02248979 -1.271978
              CHANNELS 3 Zrotation Xrotation Yrotation
              End Site
              {
                OFFSET -15 0 0
              }
            }
          }
        }
      }
      JOINT left_manubrium
      {
        OFFSET 5.722621 16.35077 3.967754
        CHANNELS 3 Zrotation Xrotation Yrotation
        JOINT left_clavicle
        {
          OFFSET 13.16364 1.694482 -4.693211
          CHANNELS 3 Zrotation Xrotation Yrotation
          JOINT left_humerus
          {
            OFFSET 29.39168 -1.063119 -2.237045
            CHANNELS 3 Zrotation Xrotation Yrotation
            JOINT left_radius
            {
              OFFSET 24.59957 -0.9528479 0.9047498
              CHANNELS 3 Zrotation Xrotation Yrotation
              End Site
              {
                OFFSET 15 -0 -0
              }
            }
          }
        }
      }
    }
  }
}
MOTION
Frames: 23
Frame Time: 0.0416666666667
0 103.5113 0 2.671347 -2.058695 0.2544559 0.7108297 -10.53487 7.876199 -0 37.78417 -0 -4.398358 -18.90393 -3.611491 -8.122504 11.79902 -23.78585 -0 4.178013 -0 8.32649 -15.63869 26.16079 -2.81984 -3.487276 5.349719 3.429182 9.790213 -7.616321 0.9661999 22.22421 5.82771 1.88373 -25.7918 9.231211 6.025029 -19.3873 11.00087 85.15667 33.71518 -19.60214 -0 0 15.11064 -5.327935 7.727812 3.408111 5.481511 -20.77505 -1.526135 -96.80207 26.59955 26.21248 0 0 -13.38241 9.184799 17.55918 3.595543
0.2323739 103.6305 1.383745 1.861334 -1.063553 0.2864085 2.071468 -12.89697 9.321933 -0 38.53565 -0 -4.485428 -18.25594 -4.13801 -7.748253 11.10895 -23.74984 -0 4.720921 -0 8.173614 -16.56179 27.07631 -2.666384 -3.396907 5.2385 3.405261 9.823645 -7.715379 1.046944 22.0066 5.878127 2.059281 -25.93768 9.223375 6.061334 -19.25826 11.04372 85.40895 33.6851 -19.95523 -0 0 15.01613 -5.509924 7.75353 3.443757 5.620197 -20.80813 -1.50108 -96.57279 26.50277 25.74055 0 0 -13.63099 9.054856 17.34494 3.754064
0.4903426 103.5636 3.050793 0.8157161 -0.4452122 0.2829528 3.494303 -18.17206 7.745944 -0 35.15736 -0 -6.029288 -14.66721 -3.161066 -7.002632 11.45 -22.77761 -0 5.172 -0 5.814835 -19.04616 25.33587 -2.199864 -2.93692 5.045557 3.223496 10.03903 -7.866605 1.106308 21.46336 6.075809 2.538355 -25.79534 8.942464 6.134503 -18.78957 11.25022 85.88592 33.88483 -20.35891 -0 0 14.40219 -6.851918 8.515355 4.133923 5.912087 -21.04221 -1.414724 -95.33626 25.58523 24.08775 0 0 -14.55626 8.762435 16.28936 4.006972
0.7598344 103.4003 4.92096 0.2364383 0.3433414 0.2823756 4.454061 -21.53736 7.654242 -0 33.11375 -0 -6.380956 -12.98293 -2.819753 -6.68595 11.37742 -22.18096 -0 5.420347 -0 5.503743 -20.08151 24.88574 -1.940818 -2.714679 4.876944 3.15733 10.13223 -8.014754 1.166477 21.11645 6.20517 2.826317 -25.84692 8.846283 6.157385 -18.53736 11.34932 86.29708 33.92189 -20.8387 -0 0 14.06002 -7.475842 8.779188 4.438218 6.090838 -21.16406 -1.431075 -94.66525 25.24193 23.12108 0 0 -15.27741 8.537373 15.66032 4.273266
1.036556 103.1719 7.005017 -0.2642238 1.278187 0.3101398 5.430073 -24.57124 8.011704 -0 31.23707 -0 -6.448018 -11.74137 -2.637649 -6.464637 11.22784 -21.70779 -0 5.790637 -0 5.667995 -20.83262 24.76021 -1.692556 -2.492194 4.694005 3.092776 10.23076 -8.174066 1.209549 20.77447 6.352373 3.115281 -25.88885 8.746535 6.162718 -18.29057 11.44808 86.76718 33.96842 -21.39562 -0 0 13.65862 -8.14203 9.02153 4.793396 6.242766 -21.30137 -1.521748 -93.93597 24.98094 22.13529 0 0 -16.21411 8.238819 14.93679 4.667244
1.317152 102.871 9.34702 -0.6671785 2.139391 0.3961832 6.254929 -27.31612 8.185542 -0 29.06565 -0 -6.503427 -10.51236 -2.390949 -6.288325 11.23487 -21.19618 -0 6.281273 -0 5.804113 -21.46 24.44025 -1.491782 -2.325656 4.525644 3.044753 10.31233 -8.324823 1.238849 20.47841 6.503239 3.369318 -25.962 8.687303 6.155533 -18.10878 11.52812 87.23097 34.01661 -21.969 -0 0 13.30218 -8.673321 9.168826 5.091855 6.360933 -21.435 -1.669095 -93.31546 24.86555 21.33502 0 0 -17.19668 7.950983 14.27672 5.102658
1.596372 102.493 12.02665 -1.025691 2.954887 0.5755754 6.967186 -29.95705 8.118614 -0 26.39694 -0 -6.571572 -9.10413 -2.097751 -6.101989 11.45832 -20.54813 -0 7.001602 -0 5.618642 -22.10646 23.72916 -1.310941 -2.176954 4.369267 2.991224 10.40002 -8.464218 1.248589 20.20736 6.669319 3.616423 -26.01628 8.631534 6.139484 -17.95802 11.60584 87.70985 34.09011 -22.55858 -0 0 12.93258 -9.20318 9.305397 5.407355 6.456131 -21.59078 -1.878056 -92.71282 24.83624 20.62157 0 0 -18.30299 7.626804 13.60323 5.631745
1.865928 102.0277 15.15739 -1.331165 3.678362 0.8875542 7.488136 -32.39736 7.698223 -0 23.09974 -0 -6.629348 -7.414638 -1.787751 -5.886842 11.98782 -19.65857 -0 8.076637 -0 4.885894 -22.76273 22.43184 -1.147276 -2.046808 4.231595 2.9291 10.49331 -8.587068 1.240457 19.96121 6.852241 3.859114 -26.04647 8.580631 6.118146 -17.83809 11.6824 88.19048 34.19255 -23.14263 -0 0 12.56121 -9.725676 9.451625 5.72671 6.538991 -21.77461 -2.132876 -92.1436 24.8711 20.00469 0 0 -19.49412 7.289329 12.94432 6.22345
2.112872 101.4724 18.90222 -1.580431 4.250526 1.375251 7.745274 -34.42045 6.880687 -0 19.13165 -0 -6.592993 -5.363717 -1.566885 -5.609306 12.93381 -18.40222 -0 9.761728 -0 3.266874 -23.33862 20.31646 -0.9944559 -1.926006 4.114741 2.852635 10.59609 -8.69114 1.212883 19.739 7.052966 4.101703 -26.03072 8.522987 6.092952 -17.73655 11.76118 88.67188 34.32609 -23.71209 -0 0 12.1759 -10.27569 9.645572 6.060316 6.616867 -21.99733 -2.424754 -91.5944 24.94923 19.46123 0 0 -20.7666 6.928246 12.30225 6.883119
2.319603 100.8475 23.46961 -1.755366 4.51649 2.061391 7.665753 -35.50135 5.719643 -0 14.792 -0 -6.314363 -2.968989 -1.625205 -5.229053 14.39561 -16.64463 -0 12.48543 -0 0.4223184 -23.45771 17.2094 -0.8529957 -1.813067 4.021883 2.762745 10.70432 -8.774523 1.166998 19.54723 7.263734 4.337162 -25.9559 8.453215 6.065396 -17.64518 11.84045 89.13774 34.4824 -24.24524 -0 0 11.7835 -10.85793 9.909795 6.399198 6.694318 -22.25803 -2.731118 -91.07644 25.05313 18.98711 0 0 -22.06396 6.545805 11.70863 7.590195
2.471054 100.2467 29.04364 -1.875011 4.239794 2.888411 7.390617 -34.82962 4.679592 -0 11.26324 -0 -5.637039 -0.6068613 -2.218354 -4.680371 16.22313 -14.39918 -0 16.91665 -0 -3.566225 -22.22458 13.41375 -0.726929 -1.707372 3.953224 2.664392 10.80833 -8.837589 1.105855 19.40052 7.46273 4.546546 -25.80526 8.360514 6.036199 -17.55269 11.91287 89.56159 34.63624 -24.71421 -0 0 11.40237 -11.48068 10.25729 6.733832 6.767538 -22.54052 -3.018384 -90.61055 25.17581 18.58021 0 0 -23.28173 6.117819 11.20874 8.338924
2.579176 99.91667 35.53753 -2.102079 3.324698 3.618842 7.478332 -31.87115 4.748644 -0 10.87537 -0 -4.843568 0.4950032 -3.260164 -3.882768 17.36856 -12.23511 -0 23.74749 -0 -7.246653 -18.41611 10.35696 -0.6292431 -1.612869 3.906909 2.568155 10.8854 -8.879443 1.038279 19.33191 7.601578 4.688501 -25.56187 8.229975 6.006442 -17.45125 11.95907 89.88709 34.73772 -25.06415 -0 0 11.08895 -12.14022 10.6682 7.04606 6.8144 -22.79096 -3.230523 -90.25377 25.33961 18.26786 0 0 -24.20366 5.577827 10.88397 9.146863
2.700516 100.2157 42.32761 -2.645771 2.304208 3.884774 8.287034 -27.42316 5.959438 -0 14.30779 -0 -5.250858 -1.255786 -3.664155 -2.984766 15.6791 -11.25583 -0 32.95182 -0 -8.497155 -12.42097 9.442685 -0.5935668 -1.534698 3.887325 2.483787 10.90052 -8.880968 0.9768039 19.41079 7.602763 4.694792 -25.20298 8.042768 5.978195 -17.35004 11.94801 90.00846 34.74219 -25.17518 -0 0 10.94502 -12.81864 11.07319 7.322144 6.77414 -22.89884 -3.298246 -90.11681 25.6286 18.15058 0 0 -24.49316 4.80266 10.85115 10.0826
2.867984 101.2108 48.80407 -2.957345 1.352701 3.555606 8.797487 -22.48039 6.096877 -0 17.10514 -0 -7.050954 -4.579939 -2.970739 -2.657921 11.00094 -11.05547 -0 43.52602 -0 -8.106367 -7.739185 9.662189 -0.6937376 -1.463317 3.929332 2.411 10.84082 -8.774583 0.9185353 19.73768 7.409029 4.498797 -24.70909 7.793324 5.947545 -17.29728 11.87224 89.7817 34.72696 -24.81716 -0 0 11.02936 -13.4895 11.37935 7.607042 6.536225 -22.73522 -3.206216 -90.29458 26.11843 18.40239 0 0 -23.91223 3.772071 11.1545 11.14381
3.059682 102.5984 55.01722 -2.289591 -0.5102723 2.828602 8.22658 -16.6028 5.281274 -0 17.0593 -0 -7.544053 -6.502346 -2.725108 -2.921683 5.669774 -9.985646 -0 53.6786 -0 -7.892248 -5.913502 10.38367 -0.9956997 -1.361131 4.10179 2.33101 10.77366 -8.482602 0.8274465 20.32877 7.082347 4.125721 -24.09508 7.502415 5.89113 -17.36585 11.7999 89.1402 34.9236 -23.77006 -0 0 11.23242 -14.2256 11.58981 8.065522 6.022679 -22.30364 -3.068646 -90.66633 26.64695 19.07818 0 0 -22.72636 2.798715 11.56295 12.05442
3.264635 104.1018 61.03759 -1.058701 -2.566555 2.064719 7.043948 -10.08931 5.018878 -0 15.34852 -0 -6.257869 -7.381888 -2.936361 -3.111097 -0.4783328 -8.426534 -0 60.39561 -0 -7.795849 -5.361125 11.58435 -1.458601 -1.202235 4.458276 2.195316 10.78354 -8.006684 0.6775177 21.04227 6.77133 3.711621 -23.41056 7.196827 5.780957 -17.61059 11.81296 88.1432 35.47301 -22.02386 -0 0 11.47557 -15.24573 11.81447 8.861319 5.295169 -21.7475 -3.011574 -90.991 26.94509 20.05706 0 0 -21.46726 2.193333 11.7403 12.57846
3.470833 105.3821 66.83491 0.1739274 -4.044223 1.448959 5.653897 -3.867346 4.999853 -0 12.77224 -0 -4.548488 -8.294214 -2.865633 -2.86124 -7.32111 -7.131977 -0 61.78285 -0 -7.773263 -5.418431 12.95198 -1.977037 -0.9968677 5.015607 1.95094 10.885 -7.402868 0.4910402 21.69666 6.568223 3.384704 -22.7024 6.889679 5.59449 -18.05727 11.93085 86.84525 36.27653 -19.68146 -0 0 11.88457 -16.76483 12.12784 10.0328 4.491666 -21.16588 -3.04271 -91.15222 26.87361 21.20626 0 0 -20.36831 1.966802 11.51191 12.74492
3.670439 106.1305 72.44056 1.032712 -4.950086 0.9621724 4.503003 1.581733 4.869612 -0 10.30113 -0 -3.14529 -9.660598 -2.384008 -2.031564 -13.90657 -6.017052 -0 57.94723 -0 -7.677736 -5.820186 14.54998 -2.443353 -0.7824731 5.765172 1.569689 11.04088 -6.732745 0.3274913 22.13838 6.481439 3.215649 -22.01528 6.592611 5.311612 -18.70489 12.12345 85.27856 37.03394 -16.89498 -0 0 12.69245 -18.84369 12.50845 11.47934 3.769242 -20.57938 -3.09451 -91.17457 26.39245 22.43276 0 0 -19.37629 1.979463 10.84753 12.67756
3.875848 106.2215 77.93518 1.263815 -5.31107 0.4989933 3.979686 6.099622 4.572644 -0 8.583539 -0 -2.236292 -11.69943 -1.65082 -0.6409487 -19.50654 -4.822954 -0 50.01808 -0 -7.34538 -6.279595 16.3442 -2.771182 -0.6103078 6.647449 1.071404 11.17431 -6.057717 0.2522051 22.2811 6.472378 3.212574 -21.39925 6.334151 4.922058 -19.50331 12.32551 83.54749 37.36077 -13.94632 -0 0 14.06768 -21.29921 12.86958 12.97446 3.270608 -19.96998 -3.091655 -91.18351 25.60479 23.67294 0 0 -18.36647 2.01474 9.852513 12.56614
4.12868 105.7026 83.43154 0.9122661 -5.074577 -0.02116886 4.044408 9.794299 4.174675 -0 7.730625 -0 -1.645184 -14.36332 -0.8457635 0.9930128 -23.89489 -3.560002 -0 39.77087 -0 -6.821678 -6.619856 17.99985 -2.917387 -0.5141447 7.549911 0.5270328 11.21093 -5.434856 0.2946709 22.13742 6.491858 3.324265 -20.8941 6.148219 4.441962 -20.34691 12.46932 81.86449 36.99122 -11.22203 -0 0 15.96055 -23.76392 13.13552 14.26617 3.065193 -19.32571 -2.998868 -91.30679 24.70583 24.86019 0 0 -17.28545 1.890795 8.718426 12.57936
4.490166 104.7296 89.07974 0.3457801 -4.295877 -0.5888447 4.193259 12.9067 3.775647 -0 7.713001 -0 -1.055845 -17.02382 -0.03297541 2.288519 -27.16024 -2.558897 -0 29.46891 -0 -6.299505 -6.819138 19.13087 -2.891735 -0.4876793 8.343521 0.0248048 11.13231 -4.909946 0.4315807 21.80643 6.507204 3.473581 -20.50761 6.050188 3.925586 -21.10509 12.52254 80.48299 35.94913 -9.076824 -0 0 18.07853 -25.86159 13.29268 15.19467 3.120816 -18.67866 -2.840707 -91.57618 23.87744 25.89844 0 0 -16.20915 1.556009 7.635555 12.78059
5.011142 103.5074 95.06149 0.0186756 -3.353924 -1.15047 3.867021 15.66166 3.486043 -0 8.819671 -0 -0.318856 -18.48167 0.7077233 2.692771 -29.28807 -2.223461 -0 21.41894 -0 -5.919852 -6.971243 19.67211 -2.747537 -0.488815 8.933185 -0.375009 10.99122 -4.508974 0.612244 21.42378 6.503717 3.59615 -20.20098 6.027363 3.450661 -21.6672 12.49962 79.58444 34.51366 -7.699992 -0 0 20.02182 -27.3714 13.38372 15.7281 3.33519 -18.1006 -2.683665 -91.90842 23.21794 26.66146 0 0 -15.28834 1.081413 6.723378 13.12616
5.709438 102.2655 101.534 0.1901109 -2.787051 -1.656474 2.879749 18.09107 3.436 -0 11.67525 -0 0.4295514 -17.57556 1.146278 1.995056 -30.05699 -2.719715 -0 17.01069 -0 -5.632325 -7.212539 19.82718 -2.554538 -0.4655965 9.284062 -0.6580857 10.87073 -4.233865 0.7959293 21.10724 6.4764 3.657208 -19.90577 6.056498 3.083463 -21.97157 12.43971 79.22271 33.0206 -7.094152 -0 0 21.46957 -28.26821 13.47279 15.91303 3.596508 -17.65865 -2.598498 -92.17392 22.75023 27.03505 0 0 -14.6481 0.5755207 6.021597 13.5318
